<svg xmlns="http://www.w3.org/2000/svg" version="1.1" x="0px" y="0px"
     viewBox="0 0 1024 1280" style="enable-background:new 0 0 1024 1024;" xml:space="preserve"><g><g><path d="M587.71,727.79c-3.67,0-7.34-1.34-10.22-4.02L512,662.79l-65.49,60.97c-5.76,5.36-14.68,5.36-20.44,0l-65.49-60.97    l-65.49,60.97l-20.44-21.96l75.71-70.49c5.76-5.36,14.68-5.36,20.44,0l65.49,60.97l65.49-60.97c5.76-5.36,14.68-5.36,20.44,0    l65.49,60.97l65.49-60.97c5.76-5.36,14.68-5.36,20.44,0l75.71,70.49l-20.44,21.96l-65.49-60.97l-65.49,60.97    C595.05,726.45,591.38,727.79,587.71,727.79z"/></g><g><path d="M669,462.67c-46.5,0-84.33-37.83-84.33-84.33h30c0,29.96,24.37,54.33,54.33,54.33s54.33-24.37,54.33-54.33h30    C753.33,424.84,715.5,462.67,669,462.67z"/></g><g><path d="M355,462.67c-46.5,0-84.33-37.83-84.33-84.33h30c0,29.96,24.37,54.33,54.33,54.33s54.33-24.37,54.33-54.33h30    C439.33,424.84,401.5,462.67,355,462.67z"/></g><g><path d="M512,952c-59.39,0-117.02-11.64-171.27-34.58c-52.4-22.16-99.45-53.88-139.85-94.29s-72.13-87.46-94.29-139.85    C83.64,629.02,72,571.39,72,512c0-59.39,11.64-117.02,34.58-171.27c22.16-52.4,53.89-99.45,94.29-139.85s87.46-72.13,139.85-94.29    C394.98,83.64,452.61,72,512,72c59.39,0,117.02,11.64,171.27,34.58c52.4,22.16,99.45,53.89,139.85,94.29s72.13,87.46,94.29,139.85    C940.36,394.98,952,452.61,952,512c0,59.39-11.64,117.02-34.58,171.27c-22.16,52.4-53.88,99.45-94.29,139.85    s-87.46,72.13-139.85,94.29C629.02,940.36,571.39,952,512,952z M512,102c-226.07,0-410,183.93-410,410    c0,226.08,183.93,410,410,410c226.08,0,410-183.92,410-410C922,285.93,738.08,102,512,102z"/></g></g>
 </svg>