<svg xmlns="http://www.w3.org/2000/svg" version="1.1" x="0px" y="0px"
     viewBox="0 0 1024 1280" style="enable-background:new 0 0 1024 1024;" xml:space="preserve"><g><g><path d="M775,249c7.4,7.5,14.6,15.2,21.4,23.2c3.1,3.7,6.2,7.4,9.2,11.2c0.7,0.9,1.5,1.9,2.2,2.8    c-3.2-4.2-0.2-0.2,0.4,0.5c1.6,2.1,3.2,4.2,4.7,6.4c11.8,16.3,22.3,33.6,31.4,51.5c2.1,4.2,4.2,8.4,6.1,12.6    c1,2.1,1.9,4.2,2.9,6.4c0.4,0.9,0.8,1.7,1.1,2.6c0.4,0.9,0.7,1.7,1.1,2.6c-1.1-2.6-1.2-2.9-0.4-0.9c3.7,9,7.1,18.1,10.1,27.4    c6,18.4,10.6,37.2,13.9,56.3c0.4,2.3,0.7,4.5,1.1,6.8c0.2,1.4,0.4,2.7,0.6,4.1c0.2,1.7,1.2,2.4-0.2-1.2c1.6,4.3,1.2,10.5,1.7,15    c0.9,9.6,1.4,19.2,1.6,28.8c0.2,9.6,0,19.2-0.6,28.9c-0.3,4.6-0.6,9.1-1,13.7c-0.4,4.4,0,10.9-1.7,15c1.8-4.5,0.2-1.8,0,0.1    c-0.1,0.9-0.3,1.8-0.4,2.7c-0.4,2.5-0.8,5-1.2,7.5c-0.9,5-1.8,10-2.8,14.9c-2,9.5-4.3,18.9-7,28.2c-2.8,9.6-5.9,19-9.4,28.3    c-1.6,4.2-3,9-5.1,13c0.2-0.4,1.8-4.2,0.4-0.9c-0.6,1.3-1.1,2.6-1.7,3.8c-1.1,2.6-2.3,5.1-3.5,7.6c-8.4,17.9-18.1,35.2-29.2,51.7    c-2.7,4-5.4,7.9-8.2,11.8c-1.4,1.9-2.8,3.9-4.3,5.8c-0.1,0.2-3,4-1.1,1.4c1.8-2.5-1.7,2.1-2,2.5c-6.3,8-13,15.8-20,23.2    c-14,15.1-29.1,29-45.2,41.7c-0.8,0.6-4.4,3.9-0.5,0.4c-0.7,0.6-1.6,1.2-2.3,1.7c-1.9,1.4-3.8,2.9-5.8,4.3    c-4.3,3.1-8.6,6.1-12.9,9c-8.3,5.5-16.8,10.7-25.4,15.5c-8.8,4.9-17.8,9.5-26.9,13.7c-2.1,1-4.2,1.9-6.4,2.9    c-1.1,0.5-2.1,0.9-3.2,1.4c-4.3,1.9,3.1-1.2,0.3-0.1c-4.7,1.9-9.5,3.8-14.3,5.6c-18.4,6.8-37.3,12.2-56.5,16.1    c-4.5,0.9-9,1.8-13.6,2.5c-2.3,0.4-4.5,0.7-6.8,1.1c-0.9,0.1-1.8,0.3-2.7,0.4c-0.9,0.1-1.8,0.3-2.7,0.4c3-0.4,3.5-0.5,1.2-0.2    c-9.6,1.2-19.1,2.1-28.8,2.6c-19.2,1-38.5,0.6-57.7-1.2c-4.6-0.4-9.1-1.1-13.7-1.5c6.2,0.5-1.4-0.2-2.9-0.4    c-2.7-0.4-5.4-0.9-8.2-1.3c-9.5-1.6-19-3.6-28.3-6c-9.4-2.3-18.7-5.1-27.9-8.1c-9-3-19.1-5.7-27.4-10.2c4.9,2.7-1.5-0.7-2.9-1.3    c-2.3-1-4.7-2.1-7-3.2c-4.7-2.2-9.3-4.4-13.9-6.8c-8.8-4.5-17.4-9.4-25.9-14.6c-8.7-5.4-17.2-11.1-25.5-17.1    c-1.9-1.4-3.9-2.9-5.8-4.3c-0.8-0.6-3-2.2,0.6,0.5c-1.2-0.9-2.3-1.8-3.4-2.7c-4.2-3.3-8.3-6.7-12.3-10.2    c-15.6-13.4-30.1-28.1-43.5-43.8c-3.1-3.7-6.2-7.4-9.2-11.2c-0.2-0.2-3-4-1.1-1.4s-0.9-1.2-1.1-1.4c-1.7-2.3-3.4-4.6-5.1-7    c-5.8-8.1-11.3-16.5-16.5-25c-5.1-8.5-10-17.1-14.4-25.9c-2.1-4.2-4.2-8.4-6.1-12.6c-1-2.1-1.9-4.2-2.9-6.4    c-0.6-1.3-1.1-2.6-1.7-3.8c-1.9-4.5,1.7,4.1-0.1-0.4c-7.3-18-13.4-36.5-18.1-55.4c-2.4-9.6-4.4-19.3-6-29    c-0.4-2.3-0.7-4.5-1.1-6.8c-0.2-1.1-0.3-2.3-0.5-3.4c-0.7-4.6,0.4,3.6,0.1,0.5c-0.6-5-1.2-10-1.6-15c-1.7-19.4-2-38.9-0.9-58.4    c0.3-4.6,0.6-9.1,1.1-13.7c0.2-2.3,0.5-4.6,0.7-6.8c0.1-0.9,0.2-1.8,0.3-2.7c0.1-1.2,1.1-7.6,0.2-1.5c1.5-9.5,3-19.1,5-28.5    c4-19,9.5-37.6,16.3-55.8c1.6-4.3,3.7-8.6,5.1-13c-1.7,5.4,0.7-1.6,1.3-2.9c1.1-2.6,2.3-5.1,3.5-7.6c4.2-8.9,8.7-17.7,13.5-26.3    c4.9-8.7,10.1-17.1,15.6-25.4c2.7-4,5.4-7.9,8.2-11.8c1.5-2.1,3.1-4.3,4.7-6.4c0.7-0.9,2.8-3.7-0.1,0c0.9-1.2,1.8-2.3,2.7-3.4    c12.9-16.3,27.1-31.5,42.5-45.6c7.7-7.1,15.7-13.8,23.9-20.3c0.8-0.6,2.8-2.5-0.6,0.5c1.1-0.9,2.3-1.8,3.5-2.6    c1.9-1.4,3.9-2.9,5.8-4.2c4.3-3.1,8.6-6,13-8.9c16.5-10.9,33.9-20.5,51.8-28.8c2.1-1,4.2-1.9,6.4-2.9c1.1-0.5,2.1-0.9,3.2-1.4    c2.8-1.2-4.6,1.9-0.3,0.1c4.7-1.9,9.5-3.8,14.3-5.6c9.1-3.3,18.4-6.3,27.7-9c9.3-2.6,18.7-4.9,28.2-6.9c4.5-0.9,9-1.8,13.6-2.5    c2.3-0.4,4.5-0.7,6.8-1.1c1.4-0.2,2.7-0.4,4.1-0.6c4.8-0.7-4.7,0.6,0.1,0c19.1-2.3,38.3-3.4,57.6-3c9.9,0.2,19.7,0.8,29.5,1.7    c2.3,0.2,4.6,0.5,6.8,0.7c1.1,0.1,2.3,0.3,3.4,0.4c0.4,0.1,5,0.5,1.4,0.2c-3.5-0.3,1,0.1,1.4,0.2c1.4,0.2,2.7,0.4,4.1,0.6    c2.5,0.4,5,0.8,7.5,1.2c19.3,3.4,38.3,8.2,56.9,14.4c4.4,1.5,8.8,3,13.1,4.6c2.2,0.8,4.3,1.6,6.5,2.5c0.9,0.3,1.7,0.7,2.6,1    c1.1,0.4,6.9,3.1,1.7,0.7c8.9,4.1,17.9,8,26.6,12.5c17.7,9.1,34.7,19.6,50.7,31.4c1.9,1.4,3.9,2.9,5.8,4.3c4,3-3.4-2.7,0.5,0.4    c0.8,0.6,1.5,1.2,2.3,1.8c3.8,3,7.5,6.1,11.2,9.2C760.2,234.7,767.8,241.7,775,249c7.4,7.4,21,8,28.3,0s7.9-20.4,0-28.3    C743.4,161,665.3,119.8,581.7,106c-83.1-13.7-168.1-2.5-244.6,32.9c-77.4,35.9-143.1,97.4-184.7,171.8    C112,383,93.8,467.8,101.9,550.4c8.3,85.1,42.2,165.3,97.8,230.2c55.2,64.5,131,111.2,213.6,131.4c80,19.5,166,15,243.1-14.2    c81.5-30.8,151.5-86.6,199.7-159.2c45.9-69.1,69.7-152.7,67.8-235.6c-1.9-83.2-29.1-165.9-78.5-233c-12.8-17.5-26.8-34-42.1-49.4    c-7.4-7.4-21-7.9-28.3,0C767.7,228.7,767.2,241,775,249z"/></g></g>
    <g><g><path d="M413.8,395.6c0,1.4-0.1,2.8-0.2,4.1c-0.1,4.7,1-4.5,0,0.1c-0.5,2.2-0.9,4.3-1.6,6.5    c-0.1,0.3-1,3.7-1.3,3.7c0.3-0.8,0.7-1.6,1-2.4c-0.4,0.8-0.7,1.6-1.1,2.4c-1.2,2.3-2.6,4.5-4,6.7c-2.4,3.7,3-3.2-0.1,0    c-0.6,0.6-1.1,1.3-1.7,1.9c-0.9,0.9-1.8,1.8-2.8,2.7c-0.3,0.3-0.6,0.6-1,0.9c-1.6,1.4-1.3,1.1,1-0.7c0.1,0.6-4.9,3.3-5.4,3.6    c-1.1,0.7-2.3,1.2-3.5,1.8c-3.4,1.9,4.1-1.2-0.7,0.2c-2.3,0.7-4.6,1.5-7,2c-0.4,0.1-0.9,0.2-1.3,0.3c-2.2,0.4-1.8,0.3,1.3-0.2    c-0.7-0.1-1.9,0.2-2.7,0.2c-0.8,0-8.1,0.5-8.3-0.2c0.1,0.4,4.7,0.8,0.6,0c-1.5-0.3-3-0.6-4.5-1.1c-1.3-0.4-2.5-0.8-3.8-1.2    c-4.1-1.3,2.8,1.8,0.5,0.3c-2-1.3-4.3-2.2-6.3-3.4c-0.3-0.2-3.2-1.9-3.2-2.2c0-0.2,3.3,2.8,1,0.7c-0.6-0.6-6.7-6-6.3-6.5    c0.1-0.2,2.5,3.5,0.8,1c-0.7-1.1-1.5-2.1-2.1-3.2c-0.7-1.1-1.3-2.2-1.9-3.4c-0.2-0.4-2.2-4.2-0.6-1.2c1.5,3-0.2-0.8-0.4-1.3    c-0.4-1.3-0.8-2.5-1.1-3.8c-0.3-1.3-0.6-2.6-0.9-3.9c-0.9-3.9,0.1,4.3,0-0.1c-0.1-2.8-0.1-5.5,0-8.3c0.1-4.1,0,1.4-0.3,1.3    c-0.2-0.1,0.7-3.7,0.8-4c0.5-2.4,1.6-4.6,2.1-7c0.6-2.7-2.3,4.3-0.2,0.6c0.8-1.5,1.6-3.1,2.5-4.6c0.6-0.9,1.2-1.8,1.8-2.7    c2.2-3.5-0.4,0.5-0.4,0.4c-0.3-0.4,4.8-5.1,5.3-5.6c0.2-0.2,1.9-1.7,2-1.7c-0.1-0.1-3.8,2.6,0.1,0c2.2-1.5,4.5-2.6,6.8-3.9    c4-2.2-4.3,1.3,0.1,0c1.3-0.4,2.5-0.9,3.8-1.2c0.5-0.1,6.3-1.8,6.5-1.4c-0.9,0.1-1.7,0.2-2.6,0.4c0.9-0.1,1.8-0.2,2.7-0.2    c1.4-0.1,2.8-0.1,4.2-0.1c0.9,0,1.8,0.1,2.8,0.1c2.2,0.2,1.8,0.1-1.3-0.3c0.9,0.1,1.8,0.3,2.7,0.5c2.6,0.5,5.1,1.4,7.7,2.2    c4.3,1.4-3.9-2.1,0.1,0c1.5,0.8,3.1,1.6,4.6,2.5c0.7,0.4,1.5,0.9,2.2,1.4s1.4,1,2.1,1.5c-2.3-1.8-2.7-2.1-1-0.7    c1.9,1.8,3.7,3.6,5.5,5.5c3.1,3.2-2.4-3.7,0.1,0c0.8,1.3,1.7,2.5,2.5,3.8c0.6,0.9,1.1,1.9,1.6,2.8c0.4,0.8,0.8,1.6,1.1,2.4    c-1.1-2.8-1.3-3.2-0.5-1.1c0.8,2.6,1.6,5,2.2,7.7c0.1,0.4,0.2,0.9,0.3,1.3c0.4,2.2,0.3,1.8-0.2-1.3    C413.9,390.2,413.8,395,413.8,395.6c0.1,10.5,9.1,20.5,20,20c10.7-0.5,20.1-8.8,20-20c-0.4-31.5-20-58.6-49.4-69.6    c-27.5-10.3-61.3-1.3-80.1,21.2c-20.2,24.2-24.3,59-7.6,86.4c16.5,27.1,47.9,40.1,78.8,34.1c33.9-6.5,57.9-38.3,58.3-72.1    c0.1-10.5-9.3-20.5-20-20C422.9,376.1,413.9,384.4,413.8,395.6z"/></g></g>
    <g><g><path d="M677.9,399c0,1.4-0.1,2.8-0.2,4.1c-0.1,4.7,1-4.5,0,0.1c-0.5,2.2-0.9,4.3-1.6,6.5c-0.1,0.3-1,3.7-1.3,3.7    c0.3-0.8,0.7-1.6,1-2.4c-0.4,0.8-0.7,1.6-1.1,2.4c-1.2,2.3-2.6,4.5-4,6.7c-2.4,3.7,3-3.2-0.1,0c-0.6,0.6-1.1,1.3-1.7,1.9    c-0.9,0.9-1.8,1.8-2.8,2.7c-0.3,0.3-0.6,0.6-1,0.9c-1.6,1.4-1.3,1.1,1-0.7c0.1,0.6-4.9,3.3-5.4,3.6c-1.1,0.7-2.3,1.2-3.5,1.8    c-3.4,1.9,4.1-1.2-0.7,0.2c-2.3,0.7-4.6,1.5-7,2c-0.4,0.1-0.9,0.2-1.3,0.3c-2.2,0.4-1.8,0.3,1.3-0.2c-0.7-0.1-1.9,0.2-2.7,0.2    s-8.1,0.5-8.3-0.2c0.1,0.4,4.7,0.8,0.6,0c-1.5-0.3-3-0.6-4.5-1.1c-1.3-0.4-2.5-0.8-3.8-1.2c-4.1-1.3,2.8,1.8,0.5,0.3    c-2-1.3-4.3-2.2-6.3-3.4c-0.3-0.2-3.2-1.9-3.2-2.2c0-0.2,3.3,2.8,1,0.7c-0.6-0.6-6.7-6-6.3-6.5c0.1-0.2,2.5,3.5,0.8,1    c-0.7-1.1-1.5-2.1-2.1-3.2c-0.7-1.1-1.3-2.2-1.9-3.4c-0.2-0.4-2.2-4.2-0.6-1.2c1.5,3-0.2-0.8-0.4-1.3c-0.4-1.3-0.8-2.5-1.1-3.8    s-0.6-2.6-0.9-3.9c-0.9-3.9,0.1,4.3,0-0.1c-0.1-2.8-0.1-5.5,0-8.3c0.1-4.1,0,1.4-0.3,1.3c-0.2-0.1,0.7-3.7,0.8-4    c0.5-2.4,1.6-4.6,2.1-7c0.6-2.7-2.3,4.3-0.2,0.6c0.8-1.5,1.6-3.1,2.5-4.6c0.6-0.9,1.2-1.8,1.8-2.7c2.2-3.5-0.4,0.5-0.4,0.4    c-0.3-0.4,4.8-5.1,5.3-5.6c0.2-0.2,1.9-1.7,2-1.7c-0.1-0.1-3.8,2.6,0.1,0c2.2-1.5,4.5-2.6,6.8-3.9c4-2.2-4.3,1.3,0.1,0    c1.3-0.4,2.5-0.9,3.8-1.2c0.5-0.1,6.3-1.8,6.5-1.4c-0.9,0.1-1.7,0.2-2.6,0.4c0.9-0.1,1.8-0.2,2.7-0.2c1.4-0.1,2.8-0.1,4.2-0.1    c0.9,0,1.8,0.1,2.8,0.1c2.2,0.2,1.8,0.1-1.3-0.3c0.9,0.1,1.8,0.3,2.7,0.5c2.6,0.5,5.1,1.4,7.7,2.2c4.3,1.4-3.9-2.1,0.1,0    c1.5,0.8,3.1,1.6,4.6,2.5c0.7,0.4,1.5,0.9,2.2,1.4s1.4,1,2.1,1.5c-2.3-1.8-2.7-2.1-1-0.7c1.9,1.8,3.7,3.6,5.5,5.5    c3.1,3.2-2.4-3.7,0.1,0c0.8,1.3,1.7,2.5,2.5,3.8c0.6,0.9,1.1,1.9,1.6,2.8c0.4,0.8,0.8,1.6,1.1,2.4c-1.1-2.8-1.3-3.2-0.5-1.1    c0.8,2.6,1.6,5,2.2,7.7c0.1,0.4,0.2,0.9,0.3,1.3c0.4,2.2,0.3,1.8-0.2-1.3C678,393.6,677.9,398.5,677.9,399    c0.1,10.5,9.1,20.5,20,20c10.7-0.5,20.1-8.8,20-20c-0.4-31.5-20-58.6-49.4-69.6c-27.5-10.3-61.3-1.3-80.1,21.2    c-20.2,24.2-24.3,59-7.6,86.4c16.5,27.1,47.9,40.1,78.8,34.1c33.9-6.5,57.9-38.3,58.3-72.1c0.1-10.5-9.3-20.5-20-20    C686.9,379.5,678,387.8,677.9,399z"/></g></g>
    <g><g><path d="M377.4,670.5c30.3,0,60.5,0,90.8,0c47.8,0,95.6,0,143.5,0c11,0,22,0,33,0c10.5,0,20.5-9.2,20-20c-0.5-10.8-8.8-20-20-20    c-30.3,0-60.5,0-90.8,0c-47.8,0-95.6,0-143.5,0c-11,0-22,0-33,0c-10.5,0-20.5,9.2-20,20C357.9,661.3,366.2,670.5,377.4,670.5    L377.4,670.5z"/></g></g>
</svg>