<svg xmlns="http://www.w3.org/2000/svg" xmlns:xlink="http://www.w3.org/1999/xlink" version="1.1" x="0px" y="0px" viewBox="0 0 1024 1280" style="enable-background:new 0 0 1024 1024;" xml:space="preserve"><g><g><path d="M512,824.34c-58.07,0-112.66-22.61-153.72-63.68c-41.06-41.06-63.68-95.66-63.68-153.72c0-8.28,6.72-15,15-15h404.8    c8.28,0,15,6.72,15,15c0,58.07-22.61,112.66-63.68,153.72C624.66,801.73,570.07,824.34,512,824.34z M325.19,621.94    c7.66,96.35,88.52,172.4,186.81,172.4s179.14-76.05,186.81-172.4L325.19,621.94z"/></g><g><path d="M753.33,409.67h-30c0-29.96-24.37-54.33-54.33-54.33s-54.33,24.37-54.33,54.33h-30c0-46.5,37.83-84.33,84.33-84.33    S753.33,363.17,753.33,409.67z"/></g><g><path d="M439.33,409.67h-30c0-29.96-24.37-54.33-54.33-54.33s-54.33,24.37-54.33,54.33h-30c0-46.5,37.83-84.33,84.33-84.33    S439.33,363.17,439.33,409.67z"/></g><g><path d="M512,952c-59.39,0-117.02-11.64-171.27-34.58c-52.4-22.16-99.45-53.88-139.85-94.29s-72.13-87.46-94.29-139.85    C83.64,629.02,72,571.39,72,512c0-59.39,11.64-117.02,34.58-171.27c22.16-52.4,53.89-99.45,94.29-139.85s87.46-72.13,139.85-94.29    C394.98,83.64,452.61,72,512,72c59.39,0,117.02,11.64,171.27,34.58c52.4,22.16,99.45,53.89,139.85,94.29s72.13,87.46,94.29,139.85    C940.36,394.98,952,452.61,952,512c0,59.39-11.64,117.02-34.58,171.27c-22.16,52.4-53.88,99.45-94.29,139.85    s-87.46,72.13-139.85,94.29C629.02,940.36,571.39,952,512,952z M512,102c-226.07,0-410,183.93-410,410    c0,226.08,183.93,410,410,410c226.08,0,410-183.92,410-410C922,285.93,738.08,102,512,102z"/></g></g></svg>